<svg width="124" height="15" viewBox="0 0 124 15" fill="none" xmlns="http://www.w3.org/2000/svg">
<g id="Group 16">
<path id="Vector" d="M0 15V0H2.35244L9.16553 10.95H7.90037L14.6035 0H16.9557L17 15H14.2479L14.2261 4.1357H14.8027L9.12118 13.2858H7.83424L2.06393 4.1357H2.72973V15H0Z" fill="white"/>
<path id="Vector_2" d="M33.7424 6.23571H41.6977V8.52859H33.7424V6.23571ZM33.9715 12.6643H43V15H31V0H42.6802V2.33569H33.9715V12.6643Z" fill="white"/>
<path id="Vector_3" d="M60.073 15V1.67145L60.7536 2.35717H55V0H68V2.35717H62.2472L62.9055 1.67145V15H60.073Z" fill="white"/>
<path id="Vector_4" d="M80 15V0H86.3896C87.7645 0 88.9404 0.214283 89.9157 0.642858C90.9072 1.07144 91.6686 1.68572 92.2013 2.48572C92.7333 3.28565 93 4.2357 93 5.3357C93 6.43571 92.7333 7.38568 92.2013 8.18568C91.6686 8.98569 90.9072 9.60004 89.9157 10.0286C88.9404 10.4571 87.7645 10.6714 86.3896 10.6714H81.5982L82.8845 9.36428V15H80ZM82.8845 9.66428L81.5982 8.31423H86.2558C87.5281 8.31423 88.4824 8.05713 89.1177 7.54286C89.7687 7.01423 90.093 6.27853 90.093 5.3357C90.093 4.3786 89.7687 3.64291 89.1177 3.12863C88.4824 2.61428 87.5281 2.35717 86.2558 2.35717H81.5982L82.8845 0.985716V9.66428Z" fill="white"/>
<path id="Vector_5" d="M113.138 5.0786C114.986 5.0786 116.411 5.47853 117.417 6.27853C118.421 7.07861 118.924 8.27855 118.924 9.87863C118.924 11.5644 118.369 12.8429 117.261 13.7143C116.168 14.5714 114.638 15 112.673 15H106V0H108.837V5.0786H113.138ZM112.54 12.8572C113.648 12.8572 114.505 12.6071 115.112 12.1072C115.732 11.6072 116.043 10.8786 116.043 9.92146C116.043 8.97855 115.739 8.2929 115.133 7.86427C114.526 7.42144 113.662 7.19995 112.54 7.19995H108.837V12.8572H112.54ZM121.163 15V0H124V15H121.163Z" fill="white"/>
</g>
</svg>
